HIERARCHY
ROOT newVegas:Hips
{
	OFFSET 0.000000 96.479958 0.000000
	CHANNELS 6 Xposition Yposition Zposition Xrotation Yrotation Zrotation
	JOINT newVegas:Pelvis
	{
		OFFSET 0.000000 0.000000 0.000000
		CHANNELS 3 Xrotation Yrotation Zrotation
		JOINT newVegas:LeftUpLeg
		{
			OFFSET 18.735201 -5.666702 -4.541200
			CHANNELS 3 Xrotation Yrotation Zrotation
			JOINT newVegas:LeftLeg
			{
				OFFSET -0.021200 -31.938179 0.493100
				CHANNELS 3 Xrotation Yrotation Zrotation
				JOINT newVegas:LeftFoot
				{
					OFFSET 0.021200 -31.938179 -4.336299
					CHANNELS 3 Xrotation Yrotation Zrotation
					JOINT newVegas:LeftToeBase
					{
						OFFSET 0.943001 -26.722000 15.023500
						CHANNELS 3 Xrotation Yrotation Zrotation
						End Site
						{
							OFFSET 0.000000 30.670183 0.000000
						}
					}
				}
				JOINT newVegas:Left_PantLeg
				{
					OFFSET 0.663870 -9.044666 -1.108900
					CHANNELS 3 Xrotation Yrotation Zrotation
					End Site
					{
						OFFSET 1.415995 20.635357 0.000000
					}
				}
			}
		}
		JOINT newVegas:RightUpLeg
		{
			OFFSET -18.735201 -5.666702 -4.541200
			CHANNELS 3 Xrotation Yrotation Zrotation
			JOINT newVegas:RightLeg
			{
				OFFSET 0.018946 -31.938133 0.493100
				CHANNELS 3 Xrotation Yrotation Zrotation
				JOINT newVegas:RightFoot
				{
					OFFSET -0.018946 -31.938126 -4.336299
					CHANNELS 3 Xrotation Yrotation Zrotation
					JOINT newVegas:RightToeBase
					{
						OFFSET -0.943001 -26.722004 15.023500
						CHANNELS 3 Xrotation Yrotation Zrotation
						End Site
						{
							OFFSET 0.000000 30.670187 0.000000
						}
					}
				}
				JOINT newVegas:Right_PantLeg
				{
					OFFSET -0.661674 -9.044716 -1.108900
					CHANNELS 3 Xrotation Yrotation Zrotation
					End Site
					{
						OFFSET -1.415958 20.635269 0.000000
					}
				}
			}
		}
	}
	JOINT newVegas:Spine
	{
		OFFSET 0.000000 10.199997 -0.299500
		CHANNELS 3 Xrotation Yrotation Zrotation
		JOINT newVegas:Spine1
		{
			OFFSET 0.000000 11.900002 -1.516600
			CHANNELS 3 Xrotation Yrotation Zrotation
			JOINT newVegas:Spine2
			{
				OFFSET 0.000000 13.600006 -2.842500
				CHANNELS 3 Xrotation Yrotation Zrotation
				JOINT newVegas:Neck
				{
					OFFSET 0.000000 9.624100 -2.890100
					CHANNELS 3 Xrotation Yrotation Zrotation
					JOINT newVegas:Head
					{
						OFFSET 0.000000 14.068802 -1.351900
						CHANNELS 3 Xrotation Yrotation Zrotation
						JOINT newVegas:Hair_Back
						{
							OFFSET 0.000000 3.231903 -17.524799
							CHANNELS 3 Xrotation Yrotation Zrotation
							End Site
							{
								OFFSET 0.000000 19.849884 0.000000
							}
						}
						JOINT newVegas:Hair_Front
						{
							OFFSET 0.000000 31.260406 4.573800
							CHANNELS 3 Xrotation Yrotation Zrotation
							JOINT newVegas:Hair_Front1
							{
								OFFSET 0.000000 2.284103 11.993300
								CHANNELS 3 Xrotation Yrotation Zrotation
								JOINT newVegas:Hair_Front2
								{
									OFFSET 0.000000 2.284103 11.993300
									CHANNELS 3 Xrotation Yrotation Zrotation
									End Site
									{
										OFFSET 0.000000 12.208862 0.000000
									}
								}
							}
						}
						JOINT newVegas:Jowel
						{
							OFFSET 0.000000 -7.458206 6.864100
							CHANNELS 3 Xrotation Yrotation Zrotation
							End Site
							{
								OFFSET 0.000000 19.849884 0.000000
							}
						}
					}
				}
				JOINT newVegas:LeftShoulder
				{
					OFFSET 15.263000 10.923401 -0.547700
					CHANNELS 3 Xrotation Yrotation Zrotation
					JOINT newVegas:LeftArm
					{
						OFFSET 25.438599 -2.830597 -13.032500
						CHANNELS 3 Xrotation Yrotation Zrotation
						JOINT newVegas:LeftForeArm
						{
							OFFSET 29.960503 0.000000 0.000000
							CHANNELS 3 Xrotation Yrotation Zrotation
							JOINT newVegas:LeftHand
							{
								OFFSET 27.849251 0.000000 0.000000
								CHANNELS 3 Xrotation Yrotation Zrotation
								JOINT newVegas:LeftHandThumb1
								{
									OFFSET 4.487587 -3.305161 6.305391
									CHANNELS 3 Xrotation Yrotation Zrotation
									JOINT newVegas:LeftHandThumb2
									{
										OFFSET 5.480453 -3.164139 3.164143
										CHANNELS 3 Xrotation Yrotation Zrotation
										JOINT newVegas:LeftHandThumb3
										{
											OFFSET 5.159721 -2.978973 2.978967
											CHANNELS 3 Xrotation Yrotation Zrotation
											End Site
											{
												OFFSET 2.494507 5.926697 1.738678
											}
										}
									}
								}
								JOINT newVegas:LeftHandIndex1
								{
									OFFSET 18.578728 -0.527832 5.208049
									CHANNELS 3 Xrotation Yrotation Zrotation
									JOINT newVegas:LeftHandIndex2
									{
										OFFSET 3.192009 0.000000 0.000000
										CHANNELS 3 Xrotation Yrotation Zrotation
										JOINT newVegas:LeftHandIndex3
										{
											OFFSET 3.835129 0.000000 0.000000
											CHANNELS 3 Xrotation Yrotation Zrotation
											End Site
											{
												OFFSET -0.034599 3.816971 0.371180
											}
										}
									}
								}
								JOINT newVegas:LeftHandMiddle1
								{
									OFFSET 18.476105 0.000000 0.000000
									CHANNELS 3 Xrotation Yrotation Zrotation
									JOINT newVegas:LeftHandMiddle2
									{
										OFFSET 3.324875 0.000000 0.000000
										CHANNELS 3 Xrotation Yrotation Zrotation
										JOINT newVegas:LeftHandMiddle3
										{
											OFFSET 4.596550 0.000000 0.000000
											CHANNELS 3 Xrotation Yrotation Zrotation
											End Site
											{
												OFFSET 0.057701 4.578827 0.399218
											}
										}
									}
								}
								JOINT newVegas:LeftHandRing1
								{
									OFFSET 17.732719 0.121887 -4.201567
									CHANNELS 3 Xrotation Yrotation Zrotation
									JOINT newVegas:LeftHandRing2
									{
										OFFSET 2.733170 0.000000 0.000000
										CHANNELS 3 Xrotation Yrotation Zrotation
										JOINT newVegas:LeftHandRing3
										{
											OFFSET 3.178268 0.000000 0.000000
											CHANNELS 3 Xrotation Yrotation Zrotation
											End Site
											{
												OFFSET 0.119102 3.170624 0.185394
											}
										}
									}
								}
								JOINT newVegas:LeftHandPinky1
								{
									OFFSET 15.989624 -0.606689 -7.535461
									CHANNELS 3 Xrotation Yrotation Zrotation
									JOINT newVegas:LeftHandPinky2
									{
										OFFSET 2.538986 0.000000 0.000000
										CHANNELS 3 Xrotation Yrotation Zrotation
										JOINT newVegas:LeftHandPinky3
										{
											OFFSET 2.593102 0.000000 0.000000
											CHANNELS 3 Xrotation Yrotation Zrotation
											End Site
											{
												OFFSET -0.150902 2.584198 0.152708
											}
										}
									}
								}
							}
							JOINT newVegas:Left_Sleeve
							{
								OFFSET 0.267448 -0.649796 0.577675
								CHANNELS 3 Xrotation Yrotation Zrotation
								End Site
								{
									OFFSET 0.000000 15.991241 0.000000
								}
							}
							JOINT newVegas:Left_CapeC
							{
								OFFSET 15.715958 -8.608795 -6.935905
								CHANNELS 3 Xrotation Yrotation Zrotation
								JOINT newVegas:Left_CapeC1
								{
									OFFSET 0.000000 -8.688499 0.000000
									CHANNELS 3 Xrotation Yrotation Zrotation
									End Site
									{
										OFFSET 0.000000 8.688499 0.000000
									}
								}
							}
						}
						JOINT newVegas:Left_CapeB
						{
							OFFSET 26.118385 -8.608795 -7.079235
							CHANNELS 3 Xrotation Yrotation Zrotation
							JOINT newVegas:Left_CapeB1
							{
								OFFSET 0.000000 -8.688499 0.000000
								CHANNELS 3 Xrotation Yrotation Zrotation
								End Site
								{
									OFFSET 0.000000 8.688499 0.000000
								}
							}
						}
						JOINT newVegas:Left_CapeA
						{
							OFFSET 5.115639 -8.608795 -10.395809
							CHANNELS 3 Xrotation Yrotation Zrotation
							JOINT newVegas:Left_CapeA1
							{
								OFFSET 0.000000 -8.688499 0.000000
								CHANNELS 3 Xrotation Yrotation Zrotation
								End Site
								{
									OFFSET 0.000000 8.688499 0.000000
								}
							}
						}
					}
				}
				JOINT newVegas:RightShoulder
				{
					OFFSET -15.263000 10.923401 -0.547700
					CHANNELS 3 Xrotation Yrotation Zrotation
					JOINT newVegas:RightArm
					{
						OFFSET -25.438599 -2.830597 -13.032500
						CHANNELS 3 Xrotation Yrotation Zrotation
						JOINT newVegas:RightForeArm
						{
							OFFSET -29.960503 0.000000 0.000000
							CHANNELS 3 Xrotation Yrotation Zrotation
							JOINT newVegas:RightHand
							{
								OFFSET -27.849251 0.000000 0.000000
								CHANNELS 3 Xrotation Yrotation Zrotation
								JOINT newVegas:RightHandThumb1
								{
									OFFSET -4.487587 -3.305161 6.305391
									CHANNELS 3 Xrotation Yrotation Zrotation
									JOINT newVegas:RightHandThumb2
									{
										OFFSET -5.480453 -3.164139 3.164143
										CHANNELS 3 Xrotation Yrotation Zrotation
										JOINT newVegas:RightHandThumb3
										{
											OFFSET -5.159721 -2.978973 2.978967
											CHANNELS 3 Xrotation Yrotation Zrotation
											End Site
											{
												OFFSET -2.494507 5.926697 1.738678
											}
										}
									}
								}
								JOINT newVegas:RightHandIndex1
								{
									OFFSET -18.578728 -0.527832 5.208049
									CHANNELS 3 Xrotation Yrotation Zrotation
									JOINT newVegas:RightHandIndex2
									{
										OFFSET -3.192009 0.000000 0.000000
										CHANNELS 3 Xrotation Yrotation Zrotation
										JOINT newVegas:RightHandIndex3
										{
											OFFSET -3.835129 0.000000 0.000000
											CHANNELS 3 Xrotation Yrotation Zrotation
											End Site
											{
												OFFSET 0.034599 3.816971 0.371180
											}
										}
									}
								}
								JOINT newVegas:RightHandMiddle1
								{
									OFFSET -18.476105 0.000000 0.000000
									CHANNELS 3 Xrotation Yrotation Zrotation
									JOINT newVegas:RightHandMiddle2
									{
										OFFSET -3.324875 0.000000 0.000000
										CHANNELS 3 Xrotation Yrotation Zrotation
										JOINT newVegas:RightHandMiddle3
										{
											OFFSET -4.596550 0.000000 0.000000
											CHANNELS 3 Xrotation Yrotation Zrotation
											End Site
											{
												OFFSET -0.057701 4.578827 0.399218
											}
										}
									}
								}
								JOINT newVegas:RightHandRing1
								{
									OFFSET -17.732719 0.121887 -4.201567
									CHANNELS 3 Xrotation Yrotation Zrotation
									JOINT newVegas:RightHandRing2
									{
										OFFSET -2.733170 0.000000 0.000000
										CHANNELS 3 Xrotation Yrotation Zrotation
										JOINT newVegas:RightHandRing3
										{
											OFFSET -3.178268 0.000000 0.000000
											CHANNELS 3 Xrotation Yrotation Zrotation
											End Site
											{
												OFFSET -0.119102 3.170624 0.185394
											}
										}
									}
								}
								JOINT newVegas:RightHandPinky1
								{
									OFFSET -15.989624 -0.606689 -7.535461
									CHANNELS 3 Xrotation Yrotation Zrotation
									JOINT newVegas:RightHandPinky2
									{
										OFFSET -2.538986 0.000000 0.000000
										CHANNELS 3 Xrotation Yrotation Zrotation
										JOINT newVegas:RightHandPinky3
										{
											OFFSET -2.593102 0.000000 0.000000
											CHANNELS 3 Xrotation Yrotation Zrotation
											End Site
											{
												OFFSET 0.150902 2.584198 0.152708
											}
										}
									}
								}
							}
							JOINT newVegas:Right_CapeC
							{
								OFFSET -15.715958 -8.608795 -6.935905
								CHANNELS 3 Xrotation Yrotation Zrotation
								JOINT newVegas:Right_CapeC1
								{
									OFFSET 0.000000 -8.688499 0.000000
									CHANNELS 3 Xrotation Yrotation Zrotation
									End Site
									{
										OFFSET 0.000000 8.688499 0.000000
									}
								}
							}
							JOINT newVegas:Right_Sleeve
							{
								OFFSET -0.267448 -0.649994 0.577675
								CHANNELS 3 Xrotation Yrotation Zrotation
								End Site
								{
									OFFSET 0.000000 15.991302 0.000000
								}
							}
						}
						JOINT newVegas:Right_CapeA
						{
							OFFSET -5.115540 -8.608795 -10.395824
							CHANNELS 3 Xrotation Yrotation Zrotation
							JOINT newVegas:Right_CapeA1
							{
								OFFSET 0.000000 -8.688499 0.000000
								CHANNELS 3 Xrotation Yrotation Zrotation
								End Site
								{
									OFFSET 0.000000 8.688499 0.000000
								}
							}
						}
						JOINT newVegas:Right_CapeB
						{
							OFFSET -26.118187 -8.608795 -7.079266
							CHANNELS 3 Xrotation Yrotation Zrotation
							JOINT newVegas:Right_CapeB1
							{
								OFFSET 0.000000 -8.688499 0.000000
								CHANNELS 3 Xrotation Yrotation Zrotation
								End Site
								{
									OFFSET 0.000000 8.688499 0.000000
								}
							}
						}
					}
				}
				JOINT newVegas:Left_Collar
				{
					OFFSET 18.625099 8.655502 8.828100
					CHANNELS 3 Xrotation Yrotation Zrotation
					JOINT newVegas:Left_Collar1
					{
						OFFSET 14.783401 10.540405 -1.259500
						CHANNELS 3 Xrotation Yrotation Zrotation
						End Site
						{
							OFFSET 0.000000 18.199875 0.000000
						}
					}
				}
				JOINT newVegas:Collar_Back
				{
					OFFSET 0.000000 15.630707 -20.132601
					CHANNELS 3 Xrotation Yrotation Zrotation
					End Site
					{
						OFFSET 0.000000 22.523010 0.000000
					}
				}
				JOINT newVegas:Left_Peck
				{
					OFFSET 17.239599 -5.132599 25.482599
					CHANNELS 3 Xrotation Yrotation Zrotation
					End Site
					{
						OFFSET 0.000000 22.523010 0.000000
					}
				}
				JOINT newVegas:Right_Peck
				{
					OFFSET -17.239599 -5.132202 25.482599
					CHANNELS 3 Xrotation Yrotation Zrotation
					End Site
					{
						OFFSET 0.000000 22.523010 0.000000
					}
				}
				JOINT newVegas:Right_Collar
				{
					OFFSET -18.625099 8.655792 8.828100
					CHANNELS 3 Xrotation Yrotation Zrotation
					JOINT newVegas:Right_Collar1
					{
						OFFSET -14.783401 10.539993 -1.259500
						CHANNELS 3 Xrotation Yrotation Zrotation
						End Site
						{
							OFFSET 0.000000 18.199631 0.000000
						}
					}
				}
			}
		}
		JOINT newVegas:Belly
		{
			OFFSET 0.000000 -6.540398 9.014299
			CHANNELS 3 Xrotation Yrotation Zrotation
			End Site
			{
				OFFSET 0.000000 11.566666 0.000000
			}
		}
	}
	JOINT newVegas:ElvisFacialAnim_Joint
	{
		OFFSET 1.000000 -95.330101 -8.825800
		CHANNELS 3 Xrotation Yrotation Zrotation
		End Site
		{
			OFFSET 0.000000 35.315800 0.000000
		}
	}
}
MOTION
Frames: 4
Frame Time: 0.016667
-1.790181 90.979889 3.443940 1.512322 -26.725229 0.648449 -0.000000 -0.000002 0.000000 -30.700908 24.378299 16.862106 32.589298 8.049879 11.580073 -5.204949 1.791313 -15.711518 0.000000 -0.000000 -0.000000 -0.000000 -0.000000 0.000001 -19.621277 -15.776767 -11.230777 34.877859 -1.447412 -7.469997 -16.741092 -2.982559 13.425949 0.000000 0.000000 0.000000 0.000001 0.000003 -0.000000 4.044053 -1.447772 0.759986 1.509778 -0.573494 0.095187 1.512357 -0.565977 0.098705 -1.018962 1.698520 1.116206 -1.018965 1.698516 1.116207 0.000000 0.000001 -0.000000 -1.018962 1.698526 1.116204 -1.018965 1.698522 1.116209 0.000000 -0.000000 -0.000000 0.000000 0.000001 -0.000000 -0.278004 3.012246 5.812622 -51.694164 -1.278264 -53.239077 0.000994 -85.822051 0.000984 -13.673764 -20.175380 -8.459489 27.590959 19.106269 -21.055325 27.859544 42.153049 14.703691 0.000001 0.000000 -0.000001 6.438757 6.867038 -86.304624 7.312865 6.867697 -93.605291 0.000001 0.000001 -0.000003 6.436807 6.866892 -86.288409 7.314797 6.867569 -93.621512 0.000000 0.000002 -0.000000 6.438738 6.867003 -86.304604 7.312862 6.867699 -93.605284 0.000000 -0.000000 -0.000002 10.514979 7.128951 -86.291032 7.312008 2.781410 -93.595298 -0.000000 -0.000005 -0.000001 0.000002 0.000000 0.000000 0.000002 0.000000 0.000000 0.000001 0.000000 0.000001 -0.000001 -0.000002 0.000001 -0.000001 -0.000003 -0.000002 -0.000001 -0.000002 0.000001 -0.000001 -0.000003 -0.000000 -1.118784 -11.889976 10.257414 -58.214734 66.009346 74.019976 0.000056 83.646772 -0.000093 -16.117233 15.251135 -32.686789 35.509590 -4.573175 10.809928 66.380805 -29.908026 29.548747 0.000001 -0.000003 0.000001 5.945872 -6.875916 81.685347 8.620185 -6.745014 103.956579 -0.000001 0.000001 0.000001 5.945856 -6.875888 81.685347 8.620173 -6.745012 103.956558 -0.000003 -0.000000 0.000001 5.945859 -6.875874 81.685354 8.620174 -6.745002 103.956565 -0.000001 -0.000003 -0.000000 5.945871 -6.875929 81.685354 8.620146 -6.745015 103.956572 -0.000003 -0.000002 -0.000001 0.000002 0.000001 -0.000002 0.000001 0.000001 -0.000004 0.000002 0.000001 -0.000002 -0.000003 0.000000 0.000001 -0.000003 0.000001 -0.000001 -0.000003 0.000000 0.000001 -0.000003 0.000001 -0.000000 0.000000 0.000003 -0.000000 0.000000 0.000003 -0.000000 0.000000 0.000003 -0.000000 0.000000 0.000003 -0.000000 0.000000 0.000003 -0.000000 0.000000 0.000003 -0.000000 0.000000 0.000003 -0.000000 -0.000000 -0.000000 0.000000 -0.000000 -0.000002 0.000000 
-1.793676 90.977043 3.449713 1.528194 -26.724608 0.667125 -0.000000 0.000000 -0.000000 -30.708527 24.404584 16.858234 32.583715 8.028597 11.578720 -5.207638 1.791691 -15.706800 0.000000 0.000000 -0.000000 -0.000000 -0.000000 0.000002 -19.661087 -15.853542 -11.243016 34.896451 -1.375891 -7.532602 -16.755794 -2.986010 13.434106 -0.000000 0.000000 -0.000000 -0.000000 -0.000001 0.000001 4.031108 -1.453867 0.764199 1.504780 -0.576876 0.097092 1.507365 -0.569384 0.100618 -1.018382 1.699750 1.112823 -1.018383 1.699757 1.112827 -0.000000 -0.000001 -0.000000 -1.018382 1.699745 1.112824 -1.018379 1.699748 1.112821 0.000001 0.000001 -0.000000 -0.000000 -0.000001 -0.000000 -0.279651 3.035680 5.768246 -51.680910 -1.342406 -53.222886 -0.000590 -85.775879 -0.000519 -13.811712 -20.364119 -8.525091 27.590959 19.106266 -21.055322 27.859544 42.153049 14.703695 0.000000 0.000001 -0.000003 6.438754 6.867037 -86.304631 7.312866 6.867699 -93.605297 0.000002 -0.000002 -0.000002 6.436805 6.866893 -86.288416 7.314797 6.867567 -93.621505 0.000002 -0.000003 0.000001 6.438736 6.867001 -86.304617 7.312859 6.867694 -93.605284 -0.000000 -0.000000 -0.000003 10.514977 7.128949 -86.291039 7.312008 2.781408 -93.595298 0.000000 -0.000003 0.000000 0.000001 0.000000 -0.000001 0.000001 0.000000 -0.000001 -0.000000 0.000000 -0.000001 -0.000000 -0.000001 0.000001 -0.000001 -0.000002 0.000000 -0.000000 -0.000001 0.000001 -0.000000 -0.000003 -0.000000 -1.120087 -11.901482 10.263997 -58.262183 66.059500 74.030037 -0.000341 83.625524 0.000308 -16.127166 15.168988 -32.708820 35.509597 -4.573173 10.809929 66.380805 -29.908022 29.548744 -0.000000 -0.000000 -0.000000 5.945870 -6.875913 81.685347 8.620188 -6.745015 103.956572 0.000001 0.000002 0.000002 5.945854 -6.875891 81.685347 8.620169 -6.745014 103.956558 0.000001 -0.000000 -0.000001 5.945860 -6.875869 81.685354 8.620174 -6.745004 103.956565 -0.000001 -0.000001 0.000001 5.945870 -6.875930 81.685354 8.620153 -6.745011 103.956565 -0.000003 0.000002 -0.000000 -0.000001 0.000005 0.000002 -0.000002 0.000002 -0.000001 -0.000001 0.000005 0.000001 0.000000 0.000003 -0.000001 0.000000 0.000003 -0.000001 0.000000 0.000003 -0.000001 0.000000 0.000003 -0.000000 -0.000000 0.000001 -0.000000 -0.000000 0.000001 -0.000000 -0.000000 0.000001 -0.000000 -0.000000 0.000001 -0.000000 -0.000000 0.000001 -0.000000 -0.000000 0.000001 -0.000000 -0.000000 0.000001 -0.000000 -0.000000 -0.000002 0.000000 -0.000000 0.000000 -0.000000 
-1.796642 90.973549 3.455880 1.544879 -26.720627 0.682717 0.000000 -0.000000 0.000000 -30.727426 24.435374 16.862569 32.587819 7.996189 11.577479 -5.214640 1.792245 -15.698816 0.000000 0.000000 -0.000000 -0.000000 0.000000 0.000003 -19.698447 -15.936385 -11.252214 34.911948 -1.306672 -7.596215 -16.769860 -2.989458 13.443365 -0.000000 0.000000 -0.000000 0.000001 0.000003 -0.000001 4.018638 -1.460562 0.768217 1.499959 -0.580352 0.099079 1.502556 -0.572886 0.102615 -1.017125 1.700800 1.110013 -1.017123 1.700796 1.110013 0.000001 -0.000000 -0.000000 -1.017122 1.700803 1.110012 -1.017126 1.700785 1.110016 0.000000 0.000002 -0.000000 0.000001 -0.000000 -0.000000 -0.280746 3.056238 5.722898 -51.672813 -1.406309 -53.202847 0.001157 -85.730813 0.001076 -13.921671 -20.527422 -8.571524 27.590968 19.106267 -21.055329 27.859539 42.153049 14.703695 0.000001 -0.000002 0.000000 6.438757 6.867039 -86.304617 7.312868 6.867697 -93.605291 0.000001 0.000002 -0.000001 6.436810 6.866890 -86.288416 7.314795 6.867566 -93.621505 -0.000000 0.000000 -0.000004 6.438740 6.867000 -86.304611 7.312860 6.867697 -93.605284 0.000001 0.000001 -0.000001 10.514983 7.128946 -86.291032 7.312009 2.781408 -93.595298 0.000002 0.000000 -0.000001 -0.000002 -0.000001 0.000001 -0.000002 -0.000001 0.000001 -0.000003 -0.000001 0.000001 0.000002 0.000002 0.000001 0.000002 0.000001 -0.000001 0.000002 0.000002 0.000001 0.000002 0.000001 0.000000 -1.121293 -11.910753 10.267823 -58.301033 66.100522 74.036109 -0.000228 83.610859 0.000192 -16.139127 15.077359 -32.725567 35.509597 -4.573175 10.809924 66.380805 -29.908029 29.548747 0.000000 0.000002 0.000001 5.945870 -6.875911 81.685340 8.620185 -6.745017 103.956572 -0.000001 0.000002 0.000003 5.945859 -6.875884 81.685347 8.620173 -6.745009 103.956558 0.000001 0.000001 0.000003 5.945862 -6.875868 81.685347 8.620178 -6.745001 103.956572 0.000000 -0.000001 -0.000000 5.945869 -6.875925 81.685354 8.620146 -6.745015 103.956572 -0.000002 -0.000000 -0.000001 0.000001 0.000004 0.000001 0.000001 0.000001 0.000001 0.000001 0.000004 0.000000 -0.000003 0.000001 0.000000 -0.000003 0.000002 -0.000001 -0.000003 0.000001 0.000000 -0.000003 0.000002 -0.000000 0.000000 0.000001 0.000000 0.000000 0.000001 0.000000 0.000000 0.000001 0.000000 0.000000 0.000001 0.000000 0.000000 0.000001 0.000000 0.000000 0.000001 0.000000 0.000000 0.000001 0.000000 -0.000000 0.000001 0.000000 0.000000 -0.000000 0.000000 
-1.799382 90.969543 3.462343 1.561949 -26.714255 0.695283 -0.000000 0.000000 -0.000000 -30.756564 24.472040 16.875555 32.600421 7.952186 11.576416 -5.225495 1.792987 -15.687862 -0.000000 -0.000001 0.000000 0.000000 0.000002 0.000000 -19.733294 -16.025179 -11.258142 34.924540 -1.239676 -7.661240 -16.783211 -2.992999 13.453579 0.000000 0.000002 0.000000 0.000000 -0.000000 -0.000001 4.006686 -1.468102 0.772269 1.495336 -0.584015 0.101201 1.497948 -0.576593 0.104754 -1.014930 1.701781 1.107684 -1.014936 1.701782 1.107681 -0.000000 0.000001 -0.000000 -1.014996 1.701787 1.107685 -1.014854 1.701760 1.107689 0.000000 -0.000000 -0.000000 -0.000000 0.000001 -0.000000 -0.281260 3.073348 5.677562 -51.670876 -1.468550 -53.178767 0.001397 -85.685331 0.001327 -13.994036 -20.655520 -8.594077 27.590962 19.106274 -21.055327 27.859541 42.153052 14.703688 0.000001 -0.000001 -0.000001 6.438757 6.867044 -86.304624 7.312865 6.867698 -93.605297 0.000000 0.000000 0.000001 6.436810 6.866894 -86.288416 7.314797 6.867566 -93.621512 0.000000 -0.000001 0.000000 6.438740 6.867005 -86.304611 7.312860 6.867695 -93.605291 0.000001 -0.000004 -0.000001 10.514981 7.128950 -86.291039 7.312008 2.781411 -93.595305 0.000001 0.000000 0.000000 -0.000001 0.000001 -0.000001 -0.000001 0.000001 -0.000001 -0.000002 0.000001 -0.000000 0.000003 0.000000 -0.000002 0.000003 -0.000001 -0.000002 0.000003 0.000000 -0.000002 0.000003 -0.000002 -0.000003 -1.122339 -11.917095 10.268322 -58.331974 66.132726 74.039886 0.000322 83.601024 -0.000391 -16.154574 14.982360 -32.734733 35.509597 -4.573172 10.809922 66.380799 -29.908026 29.548751 0.000001 -0.000003 0.000002 5.945868 -6.875914 81.685347 8.620182 -6.745013 103.956572 -0.000002 0.000001 0.000002 5.945853 -6.875890 81.685347 8.620178 -6.745011 103.956558 0.000001 -0.000001 0.000000 5.945859 -6.875864 81.685354 8.620173 -6.745004 103.956565 0.000004 -0.000001 0.000001 5.945872 -6.875925 81.685354 8.620157 -6.745016 103.956572 0.000003 0.000003 -0.000001 0.000002 0.000001 -0.000001 0.000001 0.000001 -0.000002 0.000002 0.000001 0.000000 -0.000002 -0.000002 -0.000004 -0.000002 -0.000001 -0.000004 -0.000002 -0.000002 -0.000004 -0.000002 -0.000001 -0.000003 -0.000000 0.000000 -0.000000 -0.000000 0.000000 -0.000000 -0.000000 0.000000 -0.000000 -0.000000 0.000000 -0.000000 -0.000000 0.000000 -0.000000 -0.000000 0.000000 -0.000000 -0.000000 0.000000 -0.000000 0.000001 0.000003 -0.000000 -0.000000 0.000000 -0.000000 
